<svg xmlns="http://www.w3.org/2000/svg" width="40" height="40" viewBox="0 0 40 40"><g transform="translate(5 -212.193)"><circle cx="20" cy="20" r="20" transform="translate(-5 212.193)" fill="#fff"/><g transform="translate(-12 220.193)"><g transform="translate(16)"><rect width="2.933" height="2.933" transform="translate(7.333 8.8)" fill="#008ecc"/><rect width="2.933" height="2.933" transform="translate(11.733 8.8)" fill="#008ecc"/><rect width="2.933" height="2.933" transform="translate(16.133 8.8)" fill="#008ecc"/><rect width="2.933" height="2.933" transform="translate(2.933 13.2)" fill="#008ecc"/><rect width="2.933" height="2.933" transform="translate(7.333 13.2)" fill="#008ecc"/><rect width="2.933" height="2.933" transform="translate(11.733 13.2)" fill="#008ecc"/><rect width="2.933" height="2.933" transform="translate(16.133 13.2)" fill="#008ecc"/><rect width="2.933" height="2.933" transform="translate(2.933 17.6)" fill="#008ecc"/><rect width="2.933" height="2.933" transform="translate(7.333 17.6)" fill="#008ecc"/><rect width="2.933" height="2.933" transform="translate(11.733 17.6)" fill="#008ecc"/><path d="M35.067,2.933V.733A.735.735,0,0,0,34.333,0H31.4a.735.735,0,0,0-.733.733v2.2H23.333V.733A.735.735,0,0,0,22.6,0H19.667a.735.735,0,0,0-.733.733v2.2H16V23.467H38V2.933ZM32.133,1.467H33.6V4.4H32.133Zm-11.733,0h1.467V4.4H20.4ZM36.533,22H17.467V7.333H36.533Z" transform="translate(-16)" fill="#008ecc"/></g></g></g></svg>