<svg xmlns="http://www.w3.org/2000/svg" width="40" height="40" viewBox="0 0 40 40"><rect width="12.449" height="1.383" transform="translate(13.775 14.9)" fill="#fff"/><rect width="12.449" height="1.383" transform="translate(13.775 21.037)" fill="#fff"/><rect width="12.449" height="1.383" transform="translate(13.775 17.968)" fill="#fff"/><path d="M20,0A20,20,0,1,0,40,20,20,20,0,0,0,20,0Zm4.759,8.609,4.2,3.823h-4.2Zm-1.988,20v2.781h-9.3a2.43,2.43,0,0,1-2.43-2.43V11.039a2.43,2.43,0,0,1,2.43-2.43H23.721v4.86h5.24V24.1H13.775v1.383H25.894v1.685H13.775v1.383H22.77ZM32.588,30.8H29.465v3.123H27.277V30.8H24.153V28.61h3.124V25.487h2.188V28.61h3.123Z" fill="#fff"/></svg>