<svg xmlns="http://www.w3.org/2000/svg" width="40" height="40" viewBox="0 0 40 40"><g transform="translate(-81 -691.193)"><circle cx="20" cy="20" r="20" transform="translate(81 691.193)" fill="#fff"/><g transform="translate(89 686.443)"><g transform="translate(0 12.75)"><path d="M13.125,12.75a11.674,11.674,0,0,0-10.25,6L0,15.875V24H8.125l-3.5-3.5a9.406,9.406,0,1,1,8.5,13.5A9.489,9.489,0,0,1,4.25,27.75H1.625a11.894,11.894,0,1,0,11.5-15ZM11.25,19v6.375l5.875,3.5,1-1.625-5-3V19Z" transform="translate(0 -12.75)" fill="#008ecc" opacity="0.9"/></g></g></g></svg>