<svg xmlns="http://www.w3.org/2000/svg" viewBox="0 0 1806.64 1282.5"><defs><style>.cls-1{fill:#ffb000;}.cls-2{fill:#fff;}</style></defs><title>Asset 1</title><g id="Layer_2" data-name="Layer 2"><g id="Layer_1-2" data-name="Layer 1"><path class="cls-1" d="M670.55,976.14l-231.79,191.8-80.2-118.74c-17.24,22.13-36.9,39.79-58.22,52.74l78.22,115.81,43.73,64.75,60.2-49.81,310-256.55Z"/><path class="cls-1" d="M269.73,917.68,205.29,961.2l43.19,64c19.55-10.64,34-27.68,42.32-39.57a184.24,184.24,0,0,0,11.76-19.3Z"/><path class="cls-2" d="M497.37,738.46V879c0,28.71,18.84,47.86,45.76,47.86s45.76-19.15,45.76-47.86V738.46h25.42V879c0,41.58-30.8,71.78-71.18,71.78S472,920.6,472,879V738.46Z"/><path class="cls-2" d="M718.09,738.46V947.81H692.67V738.46Z"/><path class="cls-2" d="M896,926.88c29.61,0,52.64-12.57,67.29-31.11v32c-17.64,15.56-36.79,23-67.29,23-58,0-104.68-45.16-104.68-107.66S838,735.47,896,735.47c30.5,0,49.65,7.47,67.29,23v32C948.68,772,925.65,759.39,896,759.39c-44.26,0-79.26,35-79.26,83.75S851.78,926.88,896,926.88Z"/><path class="cls-2" d="M1071,738.46v89.12l82.25-89.12h31.4L1094,836.55l95.11,111.26h-31.41L1071,846.42V947.81h-25.42V738.46Z"/><path class="cls-2" d="M1278.86,738.46V923.89h82.25v23.92H1253.44V738.46Z"/><path class="cls-2" d="M1441.86,737a16.45,16.45,0,1,1-16.45,16.45A16.6,16.6,0,0,1,1441.86,737Zm12,73.28V947.81h-23.93V810.24Z"/><path class="cls-1" d="M1806.36,492.66c4.41-136-44.38-262-137.36-355S1449.94-4.12,1314,.27h0a12.15,12.15,0,0,0,.79,24.29h0c129.17-4.18,248.87,42.08,337,130.27s134.44,207.88,130.26,337h0a12.15,12.15,0,1,0,24.28.79Z"/><path class="cls-1" d="M1697.53,507c3.56-109.86-35.87-211.74-111-286.89s-177-114.56-286.88-111h0a12.15,12.15,0,0,0,.79,24.28h0c103.06-3.33,198.56,33.58,268.9,103.92s107.25,165.84,103.92,268.91h0a12.15,12.15,0,1,0,24.28.79Z"/><path class="cls-1" d="M1588.69,521.34c2.72-83.74-27.34-161.42-84.65-218.73s-135-87.38-218.74-84.67h0a12.15,12.15,0,0,0,.78,24.28h0c77-2.49,148.28,25.07,200.78,77.58s80,123.8,77.55,200.76h0a12.15,12.15,0,0,0,24.28.78Z"/><path class="cls-1" d="M1479.87,535.69c1.87-57.64-18.85-111.13-58.32-150.6s-93-60.18-150.59-58.31h0a12.15,12.15,0,0,0,.78,24.28h0c50.86-1.64,98,16.54,132.63,51.21s52.86,81.78,51.21,132.64h0a12.15,12.15,0,0,0,24.29.78Z"/><path class="cls-1" d="M358.56,1049.2q4-5.13,7.82-10.57c36.66-52.21,56.84-120.81,56.84-193.17S403,704.5,366.38,652.29c-40.14-57.19-95.11-88.68-154.77-88.68C93,563.61,0,687.42,0,845.46s93,281.85,211.61,281.85c31.38,0,61.42-8.8,88.73-25.37C321.66,1089,341.32,1071.33,358.56,1049.2Zm-56-82.92a184.24,184.24,0,0,1-11.76,19.3c-8.34,11.89-22.77,28.93-42.32,39.57a76.52,76.52,0,0,1-36.87,9.82C147,1035,92.34,948.18,92.34,845.46S147,656,211.61,656c38.74,0,66.25,30.95,79.19,49.39,25.47,36.28,40.08,87.35,40.08,140.12C330.88,889.45,320.69,932.23,302.56,966.28Z"/><path class="cls-1" d="M1165.77,521.16l93.86,113.41L1339.45,473Zm80.47,28.94a17.92,17.92,0,1,1,25.23,2.38A17.91,17.91,0,0,1,1246.24,550.1Z"/></g></g></svg>