<svg xmlns="http://www.w3.org/2000/svg" width="33" height="33" viewBox="0 0 33 33"><g transform="translate(-215 -583)"><circle cx="16.5" cy="16.5" r="16.5" transform="translate(215 583)" fill="#008ecc"/><g transform="translate(222 428.339)"><g transform="translate(0 162.661)"><path d="M752.114,582.693q0-.065,0-.131l0-.132v-.1l0-.055-.017-.22,0-.056-.007-.072-.014-.144-.014-.143-.007-.071-.009-.066c-.024-.173-.045-.344-.076-.508-.014-.082-.028-.163-.043-.241l-.048-.23c-.03-.149-.067-.289-.1-.418l-.023-.094-.025-.09-.047-.165c-.015-.052-.028-.1-.042-.145l-.039-.122-.044-.136a.1.1,0,0,0-.127-.068l-3.381.964a.1.1,0,0,0-.074.119l.013.067.016.084c.005.031.01.064.015.1l.017.113c0,.02.006.04.009.061l.007.065c.009.088.023.183.03.284l.013.155c0,.053,0,.107.008.162.007.11.006.224.008.339v.043l0,.038,0,.076,0,.076v.038l0,.055-.009.221,0,.055v.009c0,.008,0-.066,0-.034v.014l0,.022-.008.086-.007.086-.01.084c-.007.056-.012.111-.021.165l-.023.159-.026.151c-.008.049-.018.1-.027.142s-.017.09-.027.132l-.028.121-.013.055-.012.045-.007.026H752a.1.1,0,0,0,.1-.1h0l.011-.237q0-.121,0-.247c0-.084,0-.169,0-.255Q752.114,582.758,752.114,582.693Z" transform="translate(-732.117 -570.511)" fill="#fff"/><path d="M656.065,335.531a.1.1,0,0,0,.055-.141l-.04-.084-.047-.1-.071-.146-.082-.165c-.015-.03-.029-.055-.044-.083l-.046-.085c-.032-.058-.064-.118-.1-.18l-.111-.19-.058-.1-.062-.1-.129-.2c-.092-.136-.184-.278-.286-.416l-.076-.1-.038-.052-.04-.052-.16-.207c-.054-.068-.11-.135-.165-.2-.028-.033-.055-.067-.083-.1l-.085-.1-.084-.1c-.028-.032-.056-.063-.085-.094l-.17-.181c-.056-.059-.114-.115-.169-.17s-.109-.11-.164-.16l-.158-.148c-.051-.048-.1-.092-.151-.135l-.14-.122-.13-.107-.114-.094c-.035-.029-.069-.054-.1-.077l-.109-.084a.1.1,0,0,0-.143.016l-1.815,2.2a.1.1,0,0,0,.007.14l.052.052c.019.019.04.039.063.063l.072.076.082.086.087.1c.03.035.063.069.094.107l.1.117c.034.04.067.082.1.126s.069.087.1.133l.1.14c.018.023.034.048.051.072l.05.074.051.074c.017.025.032.051.049.076.032.051.065.1.1.153l.092.156.023.039.021.039.043.078c.059.1.109.209.16.309l.07.151.034.073.031.072.059.138.051.13.024.061c.007.02.017.041.022.057l.033.1.03.085.033.1.029.088a.1.1,0,0,0,.137.063Z" transform="translate(-637.143 -327.689)" fill="#fff"/><path d="M451.961,237.237l.091.012.107.019.121.021c.037.006.075.015.115.023l1.145-2.343-.168-.026-.112-.017-.11-.013-.21-.025-.2-.017c-.063,0-.123-.011-.181-.014l-.163-.008-.144-.007-.122,0-.131,0a.1.1,0,0,0-.1.1l-.1,2.181a.1.1,0,0,0,.089.108Z" transform="translate(-442.281 -233.319)" fill="#fff"/><path d="M596.132,269.035l.087.064.077.055.041.03.041.03.074.056a.1.1,0,0,0,.149-.026l1.5-2.278a.1.1,0,0,0-.035-.147l-.081-.046-.044-.025-.053-.03-.138-.076-.157-.085-.165-.083c-.058-.028-.117-.06-.18-.088l-.2-.089c-.067-.031-.137-.06-.208-.09s-.144-.061-.219-.09l-.058-.022-.645,2.8c.036.022.069.046.1.068Z" transform="translate(-583.373 -263.916)" fill="#fff"/><path d="M188.283,240.126l.086-.012.084-.009.16-.017.15-.01.071,0c.023,0,.046,0,.066,0l.115,0,.1,0h.2a.1.1,0,0,0,.1-.111l-.135-2.054a.1.1,0,0,0-.116-.1l-.092.012-.107.014-.149.022-.169.026c-.03,0-.059.01-.088.016l-.09.017-.191.037-.2.046-.106.024-.108.028-.221.059-.226.068-.115.036-.115.039-.116.04c-.039.013-.078.026-.116.042l-.231.088c-.077.03-.152.063-.228.095l-.113.048-.111.051-.109.051c-.036.017-.072.033-.108.052l-.209.105c-.069.034-.134.072-.2.107s-.128.07-.188.106l-.176.1c-.057.033-.11.069-.161.1l-.147.094-.13.089-.114.079c-.035.024-.066.048-.1.069l-.1.073a.1.1,0,0,0-.024.142l.853,1.254a.1.1,0,0,0,.137.032l.076-.043c.025-.014.053-.031.084-.047l.1-.052.114-.06.129-.062c.045-.021.091-.045.14-.066l.151-.066c.051-.024.106-.044.161-.066s.111-.046.169-.066l.176-.064c.03-.011.06-.021.09-.03l.092-.029.092-.03.094-.027c.063-.017.125-.037.188-.053l.189-.047c.031-.008.063-.015.094-.021l.094-.02.093-.02.093-.016.182-.032Z" transform="translate(-180.61 -236.22)" fill="#fff"/><path d="M24.734,359.6l-.067.1-.068.1c-.023.032-.044.065-.066.1-.043.066-.087.132-.13.2l-.124.2-.031.05-.029.051-.058.1c-.079.134-.147.27-.217.4l-.1.2-.046.094-.042.094-.08.179-.07.169c-.022.054-.044.106-.063.156l-.053.142-.047.125-.037.107-.037.109a.1.1,0,0,0,.061.13l.794.3a.1.1,0,0,0,.131-.052l.041-.086.044-.091.055-.105.062-.12c.022-.042.047-.085.072-.13l.079-.141.09-.148.047-.077.05-.078.1-.16c.075-.106.148-.217.23-.324l.061-.082.03-.041.032-.04.128-.161c.043-.053.088-.1.132-.157.022-.026.043-.052.066-.077l.068-.075.067-.074c.022-.025.044-.049.068-.073l.135-.14c.044-.046.09-.088.134-.131s.086-.085.13-.123l.125-.114c.04-.037.082-.07.12-.1l.11-.094.1-.077.086-.068.042-.033.041-.031.074-.056a.1.1,0,0,0,.016-.15l-.9-1.059a.1.1,0,0,0-.151-.007l-.067.064-.037.035-.042.041-.1.1-.114.115-.117.127c-.04.044-.084.089-.126.138l-.131.151c-.045.051-.089.106-.134.162s-.092.112-.137.172l-.137.181C24.779,359.536,24.756,359.567,24.734,359.6Z" transform="translate(-22.878 -354.071)" fill="#fff"/><path d="M.214,597.711.2,597.8l-.021.1c-.008.039-.015.085-.023.132l-.026.151c0,.027-.009.054-.014.082l-.011.084c-.015.115-.034.238-.046.37l-.02.2c-.006.069-.009.14-.014.212-.011.143-.013.292-.018.443l0,.057v.171q0,.057,0,.114v.057l0,.057.009.228,0,.057v.032l0,.027.008.109.008.108.011.112.011.11.005.055.007.053.026.208.031.2c.009.064.021.127.032.187l0,.014a.1.1,0,0,0,.1.085h.28a.1.1,0,0,0,.1-.11c0-.016,0-.032,0-.048,0-.058-.008-.118-.009-.18l-.006-.19q0-.1,0-.2v-.1l0-.1,0-.1.005-.108.005-.109v-.043s0,0,0,0v-.01l0-.053.017-.213,0-.053.006-.053.012-.106.012-.105.006-.052.008-.052c.021-.138.039-.274.066-.4.012-.065.024-.129.036-.192l.041-.182c.025-.119.056-.229.082-.331l.019-.075c.007-.024.014-.047.021-.069l.038-.128c.012-.04.022-.077.034-.113l.034-.1.029-.088a.1.1,0,0,0-.072-.133l-.7-.187A.1.1,0,0,0,.214,597.711Z" transform="translate(0 -588.471)" fill="#fff"/><path d="M345.2,175.537a1.613,1.613,0,0,0,2.16-.741,1.692,1.692,0,0,0,.123-.347l1.633-7.089.622-2.7.385-1.672a.265.265,0,0,0-.265-.327.254.254,0,0,0-.233.15l-.784,1.6-1.157,2.366-3.225,6.6A1.615,1.615,0,0,0,345.2,175.537Zm.768-2.283a.791.791,0,1,1-.791.791A.791.791,0,0,1,345.967,173.254Z" transform="translate(-337.045 -162.661)" fill="#fff"/></g></g></g></svg>