<svg xmlns="http://www.w3.org/2000/svg" width="33" height="33" viewBox="0 0 33 33"><g transform="translate(-0.001)"><g transform="translate(0.001)"><path d="M16.5,0A16.5,16.5,0,1,0,33,16.5,16.5,16.5,0,0,0,16.5,0Zm7.844,11.874-1.567,1.567-3.19-3.19-1.21,1.21,3.19,3.19-7.825,7.824-3.19-3.19L9.342,20.5l3.19,3.19-.78.78-.015-.015a.617.617,0,0,1-.394.283L8.369,25.4a.619.619,0,0,1-.738-.739l.663-2.974a.619.619,0,0,1,.284-.394l-.015-.015L21.154,8.684a.473.473,0,0,1,.669,0l2.521,2.521A.473.473,0,0,1,24.344,11.874Z" transform="translate(-0.001)" fill="#008ecc"/></g></g></svg>