<svg xmlns="http://www.w3.org/2000/svg" width="30" height="30" viewBox="0 0 30 30"><g transform="translate(-107 -29.001)"><g transform="translate(107 29)"><circle cx="15" cy="15" r="15" transform="translate(0 0.001)" fill="#008ecc"/><path d="M122.16,106.814c1.913,0,2.37-1.56,2.37-2.869a2.37,2.37,0,0,0-4.74,0C119.79,105.254,120.419,106.814,122.16,106.814Z" transform="translate(-107 -92)" fill="#fff"/><path d="M111,157.3h-.665c-1.308,0-3.27,1.2-3.27,2.677s-.444,2.678.864,2.678H113.4c1.308,0,.864-1.2.864-2.678S112.3,157.3,111,157.3Z" transform="translate(-95.489 -142)" fill="#fff"/><path d="M15,0A15,15,0,1,0,30,15,15,15,0,0,0,15,0Zm6.1,21.713v1.037a1.037,1.037,0,0,1-1.037,1.037H9.683a2.075,2.075,0,0,1-2.075-2.075V8.66A2.075,2.075,0,0,1,9.683,6.585H20.058a1.037,1.037,0,0,1,1.037,1.037V8.66h0V21.714ZM23.17,8.66V22.752a1.037,1.037,0,0,1-1.037,1.037h-.281a2.06,2.06,0,0,0,.281-1.037V7.623a2.059,2.059,0,0,0-.281-1.037h.281A1.037,1.037,0,0,1,23.17,7.623Z" fill="#fff"/></g></g></svg>