<svg xmlns="http://www.w3.org/2000/svg" width="40" height="40" viewBox="0 0 40 40"><g transform="translate(-0.001)"><g transform="translate(0.001)"><circle cx="1.562" cy="1.562" r="1.562" transform="translate(18.438 28.582)" fill="#fff"/><path d="M120.266,68.248h-8.718a.867.867,0,0,0-.886.844V85.571a.867.867,0,0,0,.886.844h8.718a.867.867,0,0,0,.886-.844V69.092A.867.867,0,0,0,120.266,68.248Z" transform="translate(-95.907 -59.148)" fill="#fff"/><path d="M20,0A20,20,0,1,0,40,20,20,20,0,0,0,20,0Zm7.781,29.87a2.767,2.767,0,0,1-2.767,2.767H14.986A2.767,2.767,0,0,1,12.22,29.87V10.043a2.767,2.767,0,0,1,2.767-2.767H25.015a2.767,2.767,0,0,1,2.767,2.767Z" transform="translate(-0.001)" fill="#fff"/></g></g></svg>