<svg xmlns="http://www.w3.org/2000/svg" width="50" height="50" viewBox="0 0 50 50"><g transform="translate(-31 -1111)"><circle cx="25" cy="25" r="25" transform="translate(31 1111)" fill="#fff"/><g transform="translate(-58.479 1119)"><g transform="translate(101.48 0)"><path d="M108.389,17.507,121.483,4.413a1.919,1.919,0,0,0,0-2.707L120.336.559a1.918,1.918,0,0,0-2.708,0l-15.59,15.59a1.932,1.932,0,0,0,0,2.717l15.575,15.574a1.918,1.918,0,0,0,2.708,0l1.147-1.147a1.917,1.917,0,0,0,0-2.708Z" transform="translate(-101.48 0)" fill="#008ecc"/></g></g></g></svg>