<svg xmlns="http://www.w3.org/2000/svg" width="35" height="35" viewBox="0 0 35 35"><g transform="translate(-332 -853)"><g transform="translate(332 853)" fill="none" stroke="#007aff" stroke-width="1"><circle cx="17.5" cy="17.5" r="17.5" stroke="none"/><circle cx="17.5" cy="17.5" r="17" fill="none"/></g><g transform="translate(193.501 891)"><path d="M19.115,7.649a.635.635,0,0,0,.45-.186l5.29-5.29V24.818a.636.636,0,0,0,1.273,0V2.172l5.264,5.264a.636.636,0,0,0,.9-.9L25.942.187a.626.626,0,0,0-.208-.138.638.638,0,0,0-.694.138L18.665,6.562a.636.636,0,0,0,.45,1.086Z" transform="translate(131 -33)" fill="#007aff"/></g></g></svg>