<svg xmlns="http://www.w3.org/2000/svg" width="40" height="40" viewBox="0 0 40 40"><g transform="translate(-81 -691.193)"><circle cx="20" cy="20" r="20" transform="translate(81 691.193)" fill="#fff"/><g transform="translate(89 699.193)"><path d="M15.922,18.978l1.892,1.888a9.741,9.741,0,0,1-2.882,1.246.862.862,0,0,0-.64.641l-.426,1.911a.431.431,0,0,1-.418.336h-1.9a.431.431,0,0,1-.419-.336l-.424-1.905a.842.842,0,0,0-.608-.64A9.9,9.9,0,0,1,7.39,21a.831.831,0,0,0-.872.021L4.871,22.069a.431.431,0,0,1-.537-.059L2.991,20.668a.431.431,0,0,1-.06-.539l1.05-1.648A.831.831,0,0,0,4,17.609,9.9,9.9,0,0,1,2.879,14.9a.842.842,0,0,0-.638-.606L.335,13.866A.428.428,0,0,1,0,13.448v-1.9a.428.428,0,0,1,.335-.418l1.906-.425a.842.842,0,0,0,.64-.608A9.9,9.9,0,0,1,4,7.39a.831.831,0,0,0-.021-.872L2.931,4.866a.428.428,0,0,1,.058-.532L4.334,2.989a.428.428,0,0,1,.532-.058L6.517,3.983A.831.831,0,0,0,7.39,4,9.9,9.9,0,0,1,10.1,2.881a.842.842,0,0,0,.608-.639L11.134.336A.431.431,0,0,1,11.552,0h1.9a.428.428,0,0,1,.418.335l.425,1.906a.842.842,0,0,0,.608.64A9.9,9.9,0,0,1,17.61,4a.831.831,0,0,0,.872-.021l1.647-1.053a.431.431,0,0,1,.537.059L22.007,4.33a.431.431,0,0,1,.062.541L21.017,6.517A.831.831,0,0,0,21,7.39,9.9,9.9,0,0,1,22.119,10.1a.842.842,0,0,0,.639.608l1.9.425a.431.431,0,0,1,.337.418v1.9a.428.428,0,0,1-.335.418l-1.913.427a.859.859,0,0,0-.64.641,9.837,9.837,0,0,1-1.25,2.888l-1.888-1.888" fill="#008ecc"/><path d="M25.806,22.76A7.328,7.328,0,1,0,22.754,25.8" transform="translate(-6.831 -6.824)" fill="#fff"/><path d="M11,18.759A7.759,7.759,0,1,1,25.612,22.4a.431.431,0,0,1-.761-.4,6.9,6.9,0,1,0-2.873,2.865.431.431,0,1,1,.4.761A7.768,7.768,0,0,1,11,18.759Z" transform="translate(-6.259 -6.259)" fill="#fff"/><path d="M33.729,30.7,27.25,24.22a4.741,4.741,0,0,0-5.6-6.078.216.216,0,0,0-.11.364l2.58,2.578a.216.216,0,0,1,.058.2l-.5,2.25a.216.216,0,0,1-.164.164l-2.246.493a.216.216,0,0,1-.2-.058l-2.582-2.578a.216.216,0,0,0-.364.111,4.738,4.738,0,0,0,6.071,5.6c4.883,4.884.665.659,6.487,6.483A2.155,2.155,0,0,0,33.729,30.7Zm-1.5,2.4a.862.862,0,1,1,.862-.862A.862.862,0,0,1,32.224,33.1Z" transform="translate(-10.242 -10.25)" fill="#008ecc"/><path d="M40.179,40.61a.431.431,0,0,1-.3-.126l-4.741-4.741a.431.431,0,0,1,.609-.609l4.741,4.741a.431.431,0,0,1-.3.736Z" transform="translate(-19.921 -19.921)" fill="#fff"/></g></g></svg>