<svg xmlns="http://www.w3.org/2000/svg" width="30" height="30" viewBox="0 0 30 30"><g transform="translate(-0.001)"><circle cx="15" cy="15" r="15" transform="translate(0.001)" fill="#008ecc"/><circle cx="2.8" cy="2.8" r="2.8" transform="translate(12.001 12.875)" fill="#fff"/><path d="M15,0A15,15,0,1,0,30,15,15,15,0,0,0,15,0Zm7.882,17.18-2.131.137a5.958,5.958,0,0,1-.475,1.148l1.409,1.6-2.225,2.224-1.6-1.409a5.961,5.961,0,0,1-1.148.474l-.138,2.131H13.427l-.138-2.131a5.966,5.966,0,0,1-1.148-.474l-1.6,1.409L8.314,20.069l1.409-1.6a5.969,5.969,0,0,1-.475-1.148L7.118,17.18V14.034L9.248,13.9a5.985,5.985,0,0,1,.475-1.148l-1.409-1.6,2.225-2.225,1.6,1.409a5.965,5.965,0,0,1,1.148-.474l.138-2.131h3.145l.138,2.131a5.964,5.964,0,0,1,1.148.474l1.6-1.409,2.224,2.225-1.409,1.6a5.987,5.987,0,0,1,.475,1.148l2.131.138Z" fill="#fff"/></g></svg>