<svg xmlns="http://www.w3.org/2000/svg" width="33.3" height="33.3" viewBox="0 0 33.3 33.3"><g transform="translate(-0.001)"><g transform="translate(0.001)"><path d="M16.651,0A16.65,16.65,0,1,0,33.3,16.65,16.65,16.65,0,0,0,16.651,0ZM16.7,24.505H9.488c0-5.2,4.568-5.2,5.582-6.56l.116-.62a4.971,4.971,0,0,1-2.429-4.5c0-2.681,1.744-4.855,3.895-4.855s3.895,2.174,3.895,4.855a4.988,4.988,0,0,1-2.393,4.48l.132.7c1.112,1.294,5.528,1.378,5.528,6.492Z" transform="translate(-0.001)" fill="#008ecc"/></g></g></svg>