<svg xmlns="http://www.w3.org/2000/svg" width="50" height="50" viewBox="0 0 50 50"><g transform="translate(0)"><path d="M25,0A25,25,0,1,0,50,25,25,25,0,0,0,25,0ZM10.656,17.68h21.81v2.594H10.656Zm0,11.938h21.81v2.594H10.656ZM39.346,38.18H10.656V35.587H39.346V38.18Zm0-11.938H10.656V23.649H39.346v2.594Zm0-11.938H10.656V11.711H39.346V14.3Z" transform="translate(-0.001)" fill="#fff"/><rect width="30" height="3" transform="translate(10 11.5)" fill="#008ecc"/><rect width="23" height="3" transform="translate(10 17.5)" fill="#008ecc"/><rect width="30" height="3" transform="translate(10 23.5)" fill="#008ecc"/><rect width="23" height="3" transform="translate(10 29.5)" fill="#008ecc"/><rect width="30" height="3" transform="translate(10 35.5)" fill="#008ecc"/></g></svg>