<svg xmlns="http://www.w3.org/2000/svg" width="33" height="33" viewBox="0 0 33 33"><g transform="translate(5 -212.193)"><circle cx="16.5" cy="16.5" r="16.5" transform="translate(-5 212.193)" fill="#008ecc"/><g transform="translate(2.425 218.793)"><g transform="translate(0)"><rect width="2.42" height="2.42" transform="translate(6.05 7.26)" fill="#fff"/><rect width="2.42" height="2.42" transform="translate(9.68 7.26)" fill="#fff"/><rect width="2.42" height="2.42" transform="translate(13.31 7.26)" fill="#fff"/><rect width="2.42" height="2.42" transform="translate(2.42 10.89)" fill="#fff"/><rect width="2.42" height="2.42" transform="translate(6.05 10.89)" fill="#fff"/><rect width="2.42" height="2.42" transform="translate(9.68 10.89)" fill="#fff"/><rect width="2.42" height="2.42" transform="translate(13.31 10.89)" fill="#fff"/><rect width="2.42" height="2.42" transform="translate(2.42 14.52)" fill="#fff"/><rect width="2.42" height="2.42" transform="translate(6.05 14.52)" fill="#fff"/><rect width="2.42" height="2.42" transform="translate(9.68 14.52)" fill="#fff"/><path d="M31.73,2.42V.605A.606.606,0,0,0,31.125,0h-2.42a.606.606,0,0,0-.6.605V2.42H22.05V.605A.606.606,0,0,0,21.445,0h-2.42a.606.606,0,0,0-.6.605V2.42H16V19.36H34.15V2.42ZM29.31,1.21h1.21V3.63H29.31Zm-9.68,0h1.21V3.63H19.63ZM32.94,18.15H17.21V6.05H32.94Z" transform="translate(-16)" fill="#fff"/></g></g></g></svg>