<svg xmlns="http://www.w3.org/2000/svg" width="33" height="33" viewBox="0 0 33 33"><g transform="translate(-9233 -2564)"><circle cx="16.5" cy="16.5" r="16.5" transform="translate(9233 2564)" fill="#008ecc"/><g transform="translate(9239.6 2573.075)"><g transform="translate(0 0)"><path d="M20.506,10.224a.53.53,0,0,0-.409-.195H18.09a6.843,6.843,0,0,0-1.874-3.07C13.678,5.29,6.948,5.29,4.41,6.959a6.877,6.877,0,0,0-1.875,3.07H.528a.529.529,0,0,0-.517.635l.3,1.441a.528.528,0,0,0,.517.421H1.42a3.566,3.566,0,0,0-.856,2.33,3.491,3.491,0,0,0,1.1,2.621l.023.018v2.016a.793.793,0,0,0,.792.792H4.334a.793.793,0,0,0,.792-.792V18.7H15.5v.81a.793.793,0,0,0,.792.792h1.851a.793.793,0,0,0,.792-.792V17.536a3.623,3.623,0,0,0,.231-5.011H19.8a.526.526,0,0,0,.517-.421l.3-1.44A.532.532,0,0,0,20.506,10.224ZM5.28,8.282c2.023-1.331,8.042-1.331,10.064,0a6.53,6.53,0,0,1,1.361,2.576H3.919A6.531,6.531,0,0,1,5.28,8.282ZM2.911,15.055a1.558,1.558,0,1,1,1.558,1.558A1.558,1.558,0,0,1,2.911,15.055Zm13.265,1.558a1.558,1.558,0,1,1,1.558-1.558A1.559,1.559,0,0,1,16.176,16.613Z" transform="translate(0 -5.707)" fill="#fff"/></g></g></g></svg>