<svg xmlns="http://www.w3.org/2000/svg" width="40" height="40" viewBox="0 0 40 40"><g transform="translate(-9233 -2564)"><circle cx="20" cy="20" r="20" transform="translate(9233 2564)" fill="#fff"/><g transform="translate(9241 2569.293)"><g transform="translate(0 5.707)"><path d="M24.856,11.182a.643.643,0,0,0-.5-.236H21.927c-.6-1.584-1.383-3.135-2.272-3.721C16.58,5.2,8.421,5.2,5.346,7.225c-.89.586-1.669,2.14-2.272,3.721H.64a.641.641,0,0,0-.627.77l.36,1.746a.64.64,0,0,0,.627.51h.721A4.322,4.322,0,0,0,.684,16.8a4.232,4.232,0,0,0,1.337,3.178c.01.008.019.014.028.022V22.44a.961.961,0,0,0,.96.96H5.253a.961.961,0,0,0,.96-.96v-.982H18.786v.982a.961.961,0,0,0,.96.96H21.99a.962.962,0,0,0,.96-.96v-2.4a4.392,4.392,0,0,0,.28-6.074H24a.638.638,0,0,0,.627-.511l.361-1.746A.645.645,0,0,0,24.856,11.182ZM6.4,8.828c2.452-1.614,9.748-1.614,12.2,0a7.915,7.915,0,0,1,1.65,3.122H4.751A7.916,7.916,0,0,1,6.4,8.828ZM3.528,17.038a1.889,1.889,0,1,1,1.889,1.889A1.889,1.889,0,0,1,3.528,17.038Zm16.079,1.889A1.889,1.889,0,1,1,21.5,17.038,1.889,1.889,0,0,1,19.607,18.927Z" transform="translate(0 -5.707)" fill="#008ecc"/></g></g></g></svg>