<svg xmlns="http://www.w3.org/2000/svg" width="33.3" height="33.3" viewBox="0 0 33.3 33.3"><g transform="translate(-191 295.999)"><path d="M136.149,161.485a1.749,1.749,0,0,0-.873,3.265V166.7h1.746V164.75a1.749,1.749,0,0,0-.873-3.265Z" transform="translate(71.751 -439.484)" fill="#008ecc"/><path d="M128.878,85.849a2.653,2.653,0,0,0-2.65,2.65v2.822h5.3V88.5A2.653,2.653,0,0,0,128.878,85.849Z" transform="translate(78.872 -372.498)" fill="#008ecc"/><path d="M16.65,0A16.65,16.65,0,1,0,33.3,16.651,16.65,16.65,0,0,0,16.65,0Zm5.116,25.21H11.534a1.957,1.957,0,0,1-1.957-1.957V16.936a1.957,1.957,0,0,1,1.554-1.915V12.169a5.518,5.518,0,1,1,11.036,0v2.852a1.957,1.957,0,0,1,1.554,1.915v6.318h0A1.957,1.957,0,0,1,21.766,25.211Z" transform="translate(191 -296)" fill="#008ecc"/></g></svg>