<svg xmlns="http://www.w3.org/2000/svg" width="40" height="40" viewBox="0 0 40 40"><g transform="translate(-0.001)"><g transform="translate(0.001)"><path d="M20,0A20,20,0,1,0,40,20,20,20,0,0,0,20,0Zm0,7.025,11.835,7.38H8.166ZM31.984,26.19h0a2.143,2.143,0,0,1-2.143,2.143H10.163A2.143,2.143,0,0,1,8.02,26.19V14.875a2.132,2.132,0,0,1,.034-.367l11.308,7.051c.014.009.029.015.043.023l.045.024a1.187,1.187,0,0,0,.246.1l.026.005a1.22,1.22,0,0,0,.279.035h0a1.2,1.2,0,0,0,.279-.035l.026-.005a1.2,1.2,0,0,0,.246-.1l.045-.024c.014-.008.029-.014.043-.023L31.95,14.508a2.129,2.129,0,0,1,.034.367V26.19Z" transform="translate(-0.001)" fill="#fff"/></g></g></svg>