<svg xmlns="http://www.w3.org/2000/svg" width="40" height="40" viewBox="0 0 40 40"><g transform="translate(-215 -583)"><circle cx="20" cy="20" r="20" transform="translate(215 583)" fill="#fff"/><g transform="translate(223.485 592.697)"><g transform="translate(0 0)"><path d="M753.016,583.417q0-.079-.006-.159c0-.053,0-.106-.006-.16v-.12l-.005-.067-.021-.267-.005-.068-.008-.088-.016-.175-.017-.173-.009-.086-.01-.08c-.029-.21-.055-.417-.092-.616-.017-.1-.034-.2-.052-.292l-.058-.279c-.036-.181-.081-.35-.119-.507l-.028-.115-.03-.109-.057-.2c-.018-.063-.034-.122-.051-.176l-.047-.148-.053-.165a.126.126,0,0,0-.154-.082l-4.1,1.168a.126.126,0,0,0-.089.144l.015.082.019.1c.007.037.012.078.019.121l.021.137c0,.024.008.049.011.074l.009.078c.011.107.028.221.036.344l.016.188c0,.064.006.13.009.2.009.133.007.271.01.411v.052l0,.046q0,.046,0,.092l0,.092v.046l0,.066q-.006.134-.011.268l0,.067v.01c0,.01,0-.079,0-.041v.017l0,.026c0,.035-.006.07-.01.1s-.006.069-.009.1l-.012.1c-.009.068-.014.135-.025.2l-.028.192-.032.183c-.009.059-.022.117-.033.172s-.021.109-.033.16l-.034.146-.015.067-.015.054-.008.031h5.013a.125.125,0,0,0,.126-.12h0q.006-.14.013-.287t.006-.3c0-.1,0-.2,0-.309Q753.017,583.5,753.016,583.417Z" transform="translate(-728.777 -568.651)" fill="#008ecc"/><path d="M657.173,336.441a.126.126,0,0,0,.067-.17l-.048-.1-.057-.12-.087-.177-.1-.2c-.018-.037-.035-.067-.053-.1l-.056-.1c-.038-.07-.077-.143-.119-.218l-.134-.23-.07-.119-.075-.121-.156-.248c-.112-.165-.223-.337-.347-.5l-.092-.127-.046-.064-.048-.063-.193-.25c-.066-.083-.134-.164-.2-.245-.034-.04-.066-.081-.1-.121l-.1-.117-.1-.116c-.034-.039-.068-.077-.1-.114l-.206-.219c-.068-.072-.138-.139-.2-.206s-.132-.133-.2-.194l-.192-.18c-.062-.058-.125-.111-.183-.163l-.17-.148-.157-.129-.138-.113c-.043-.035-.084-.065-.12-.093l-.132-.1a.126.126,0,0,0-.174.02l-2.2,2.663a.126.126,0,0,0,.008.169l.064.063c.023.023.049.047.076.076l.087.092.1.1.106.119c.036.042.076.084.114.13l.118.142c.041.048.081.1.122.152s.084.105.124.161l.124.17c.021.028.042.058.062.088l.061.089.061.09c.02.03.039.061.059.092.039.062.079.123.117.186l.111.189.028.047.026.048.052.1c.071.125.132.253.194.374l.085.183.041.088.037.088.072.167.062.158.029.074c.009.024.02.049.026.069l.04.117.036.1.04.12.036.107a.126.126,0,0,0,.166.077Z" transform="translate(-634.237 -326.937)" fill="#008ecc"/><path d="M452,237.745l.11.015.129.022.147.025c.045.007.091.018.14.028l1.388-2.84-.2-.032c-.046-.007-.091-.015-.136-.02l-.133-.016-.255-.03-.239-.021c-.077-.006-.15-.014-.219-.017l-.2-.01-.174-.008-.148,0-.159,0a.126.126,0,0,0-.127.12l-.127,2.643a.126.126,0,0,0,.108.131Z" transform="translate(-440.263 -232.997)" fill="#008ecc"/><path d="M596.177,269.659l.106.077.093.067.05.037.049.037.09.067a.126.126,0,0,0,.18-.032l1.813-2.761a.126.126,0,0,0-.042-.178l-.1-.056-.054-.031-.064-.036-.167-.092-.19-.1-.2-.1c-.07-.034-.142-.072-.219-.107l-.237-.108c-.081-.038-.166-.073-.252-.109s-.174-.074-.265-.109l-.07-.026-.782,3.394c.043.027.084.056.124.082Z" transform="translate(-580.712 -263.454)" fill="#008ecc"/><path d="M189.086,240.619c.035,0,.069-.01.1-.014l.1-.01.194-.02.182-.012.086-.006c.028,0,.056,0,.08,0l.14,0,.122,0h.241a.126.126,0,0,0,.125-.134l-.163-2.49a.126.126,0,0,0-.141-.117l-.112.014-.13.017-.181.027-.205.031c-.037.005-.071.012-.107.019l-.109.021-.232.045-.246.056-.128.029c-.043.01-.086.022-.13.034l-.268.071-.275.083-.139.043-.14.048-.14.048c-.047.016-.094.032-.14.05l-.28.107c-.093.036-.184.077-.276.115l-.137.058-.134.062-.133.061c-.044.02-.088.04-.13.063l-.253.128c-.083.042-.162.088-.241.13s-.155.084-.228.129l-.213.126c-.069.04-.133.084-.2.123l-.179.114-.158.108-.138.1c-.043.029-.08.059-.115.084l-.12.089a.126.126,0,0,0-.029.172l1.034,1.52a.126.126,0,0,0,.166.039l.093-.052c.031-.017.064-.037.1-.057l.122-.063.138-.072.156-.075c.055-.025.11-.055.17-.08l.183-.081c.062-.029.128-.054.2-.081s.134-.055.2-.08l.214-.077c.036-.014.073-.025.11-.037l.111-.036.112-.036.114-.033c.076-.021.152-.044.228-.064l.23-.057c.038-.01.076-.018.115-.026l.114-.024.113-.024.113-.02.221-.038Z" transform="translate(-179.786 -235.884)" fill="#008ecc"/><path d="M25.023,359.9l-.082.115-.082.116c-.027.039-.053.079-.079.119-.052.08-.106.159-.157.24l-.15.245-.037.061-.035.062-.07.123c-.1.162-.178.328-.263.485l-.116.236-.056.115-.051.113-.1.217-.085.205c-.027.066-.054.128-.077.189l-.064.172-.056.151-.044.13-.044.132a.126.126,0,0,0,.074.158l.962.369a.126.126,0,0,0,.159-.063l.05-.1.053-.11.066-.128.075-.145c.027-.051.057-.1.088-.158l.1-.171.109-.18.056-.094.061-.094.125-.194c.09-.128.179-.263.279-.393l.074-.1.037-.05.039-.049.155-.195c.053-.064.107-.127.16-.19.027-.031.053-.063.08-.094l.082-.091.082-.09c.027-.03.054-.06.082-.088l.164-.169c.054-.056.11-.107.162-.159s.1-.1.158-.15l.152-.138c.049-.045.1-.085.145-.125l.134-.114.119-.094.1-.083.051-.04.049-.037.09-.068a.126.126,0,0,0,.02-.182l-1.1-1.284a.126.126,0,0,0-.183-.009l-.081.078-.045.043-.051.049-.122.123-.138.14-.142.154c-.049.054-.1.108-.152.168l-.158.183c-.055.062-.108.129-.163.2s-.112.136-.166.208l-.166.219C25.078,359.822,25.05,359.86,25.023,359.9Z" transform="translate(-22.773 -353.198)" fill="#008ecc"/><path d="M.259,597.729l-.022.11-.026.127c-.009.047-.018.1-.028.16l-.031.183c-.005.032-.011.065-.017.1l-.014.1c-.018.139-.042.289-.055.449l-.024.245c-.007.084-.011.17-.017.257-.014.174-.016.354-.022.536l0,.068v.207c0,.046,0,.092,0,.138v.069l0,.069.011.277,0,.069v.039l0,.033.01.132.01.131.013.135.013.134.007.066.008.065.032.252.037.24c.011.078.026.153.039.226l0,.017a.126.126,0,0,0,.124.1H.658a.126.126,0,0,0,.126-.133c0-.019,0-.039,0-.058,0-.07-.009-.143-.011-.218l-.008-.23c0-.078,0-.159,0-.24v-.122l0-.123,0-.124.006-.131.006-.132,0-.033v-.019c0-.005,0,0,0,0V600.9l.005-.064.021-.258.005-.064.007-.064.015-.128.015-.128.007-.063.009-.063c.026-.168.048-.333.08-.49.015-.079.029-.157.044-.233l.049-.221c.03-.144.068-.278.1-.4l.024-.091c.008-.029.017-.057.025-.084l.046-.155c.015-.049.027-.093.041-.137l.041-.123.035-.107a.126.126,0,0,0-.087-.161l-.85-.227A.126.126,0,0,0,.259,597.729Z" transform="translate(0 -586.529)" fill="#008ecc"/><path d="M345.391,178.268a1.956,1.956,0,0,0,2.618-.9,2.052,2.052,0,0,0,.149-.42l1.98-8.592.754-3.272.467-2.027a.321.321,0,0,0-.322-.4.308.308,0,0,0-.283.182l-.95,1.944-1.4,2.868-3.909,8A1.957,1.957,0,0,0,345.391,178.268Zm.931-2.767a.959.959,0,1,1-.959.959A.959.959,0,0,1,346.322,175.5Z" transform="translate(-335.508 -162.661)" fill="#008ecc"/></g></g></g></svg>