<svg xmlns="http://www.w3.org/2000/svg" width="40" height="40" viewBox="0 0 40 40"><g transform="translate(98.998 114)"><g transform="translate(-98.998 -114)"><path d="M20,0A20,20,0,1,0,40,20,20,20,0,0,0,20,0Zm9.508,14.393-1.9,1.9-3.867-3.867-1.467,1.467,3.867,3.867-9.484,9.484-3.867-3.866-1.467,1.467L15.19,28.71l-.945.945-.018-.018a.748.748,0,0,1-.478.343l-3.606.8a.75.75,0,0,1-.895-.9l.8-3.6a.751.751,0,0,1,.344-.478l-.018-.018L25.641,10.526a.574.574,0,0,1,.811,0l3.056,3.056A.574.574,0,0,1,29.508,14.393Z" transform="translate(-0.001)" fill="#fff"/></g></g></svg>