<svg xmlns="http://www.w3.org/2000/svg" width="33" height="33" viewBox="0 0 33 33"><g transform="translate(-0.001)"><g transform="translate(0.001)"><circle cx="1.289" cy="1.289" r="1.289" transform="translate(15.211 23.581)" fill="#008ecc"/><path d="M118.585,68.248h-7.192a.715.715,0,0,0-.731.7v13.6a.715.715,0,0,0,.731.7h7.192a.715.715,0,0,0,.731-.7v-13.6A.715.715,0,0,0,118.585,68.248Z" transform="translate(-98.489 -60.741)" fill="#008ecc"/><path d="M16.5,0A16.5,16.5,0,1,0,33,16.5,16.5,16.5,0,0,0,16.5,0ZM22.92,24.642a2.283,2.283,0,0,1-2.282,2.282H12.364a2.283,2.283,0,0,1-2.282-2.282V8.286A2.283,2.283,0,0,1,12.364,6h8.274A2.283,2.283,0,0,1,22.92,8.286Z" transform="translate(-0.001)" fill="#008ecc"/></g></g></svg>