<svg xmlns="http://www.w3.org/2000/svg" width="35" height="35" viewBox="0 0 35 35"><g transform="translate(-332 -853)"><g transform="translate(332 853)" fill="none" stroke="#008ecc" stroke-width="1"><circle cx="17.5" cy="17.5" r="17.5" stroke="none"/><circle cx="17.5" cy="17.5" r="17" fill="none"/></g><g transform="translate(336.5 860.985)"><path d="M14.827,15.653h4.245a.327.327,0,0,0,0-.653H14.827a.327.327,0,0,0,0,.653Z" transform="translate(-6.061 -10.102)" fill="#008ecc"/><path d="M14.827,46.653h4.245a.327.327,0,1,0,0-.653H14.827a.327.327,0,1,0,0,.653Z" transform="translate(-6.061 -30.98)" fill="#008ecc"/><path d="M14.827,21.653H24.3a.327.327,0,0,0,0-.653H14.827a.327.327,0,0,0,0,.653Z" transform="translate(-6.061 -14.143)" fill="#008ecc"/><path d="M14.827,33.653H24.3a.327.327,0,1,0,0-.653H14.827a.327.327,0,1,0,0,.653Z" transform="translate(-6.061 -22.224)" fill="#008ecc"/><path d="M14.827,40.653H24.3a.327.327,0,0,0,0-.653H14.827a.327.327,0,0,0,0,.653Z" transform="translate(-6.061 -26.939)" fill="#008ecc"/><path d="M14.827,27.653H19.4a.327.327,0,1,0,0-.653H14.827a.327.327,0,0,0,0,.653Z" transform="translate(-6.061 -18.184)" fill="#008ecc"/><path d="M39.112,27H36.827a.327.327,0,0,0,0,.653h2.286a.327.327,0,0,0,0-.653Z" transform="translate(-20.878 -18.184)" fill="#008ecc"/><path d="M32.595,27.1a.322.322,0,0,0-.095.232.342.342,0,0,0,.095.232.323.323,0,0,0,.232.095.323.323,0,0,0,.327-.327.323.323,0,0,0-.095-.232A.339.339,0,0,0,32.595,27.1Z" transform="translate(-18.184 -18.19)" fill="#008ecc"/><path d="M17.255.653H15.3V.327A.326.326,0,0,0,14.969,0H12.031A.326.326,0,0,0,11.7.327V.653H5.5V19.592h16V.653Zm-2.612,0v.98H12.357V.653ZM11.7,1.306v.98H15.3v-.98h1.633V2.612H10.071V1.306ZM9.418,2.939v.327h8.163v-.98h2.286V17.959H7.133V2.286H9.418Zm11.429,16H6.153V1.306H9.418v.327H6.48v16.98H20.52V1.633H17.582V1.306h3.265Z" fill="#008ecc"/></g></g></svg>